<svg>
    <symbol viewBox="0 0 18 18" id="search-icon-symbol" xmlns="http://www.w3.org/2000/svg">
        <g>
            <path
                fill-rule="evenodd"
                clip-rule="evenodd"
                d="M2.5 8.16667C2.5 5.03705 5.03705 2.5 8.16667 2.5C11.2963 2.5 13.8333 5.03705 13.8333 8.16667C13.8333 9.68911 13.2329 11.0713 12.256 12.0895C12.2255 12.1136 12.1961 12.1397 12.1679 12.1679C12.1397 12.1961 12.1136 12.2255 12.0895 12.256C11.0713 13.2329 9.68911 13.8333 8.16667 13.8333C5.03705 13.8333 2.5 11.2963 2.5 8.16667ZM12.8347 14.2489C11.5419 15.2426 9.92326 15.8333 8.16667 15.8333C3.93248 15.8333 0.5 12.4008 0.5 8.16667C0.5 3.93248 3.93248 0.5 8.16667 0.5C12.4008 0.5 15.8333 3.93248 15.8333 8.16667C15.8333 9.92326 15.2426 11.5419 14.2489 12.8347L17.2071 15.7929C17.5976 16.1834 17.5976 16.8166 17.2071 17.2071C16.8166 17.5976 16.1834 17.5976 15.7929 17.2071L12.8347 14.2489Z"
            />
        </g>
    </symbol>

    <symbol viewBox="0 0 330 330" id="play-icon" xmlns="http://www.w3.org/2000/svg">
        <g >
            <path id="XMLID_308_" d="M37.728,328.12c2.266,1.256,4.77,1.88,7.272,1.88c2.763,0,5.522-0.763,7.95-2.28l240-149.999
	c4.386-2.741,7.05-7.548,7.05-12.72c0-5.172-2.664-9.979-7.05-12.72L52.95,2.28c-4.625-2.891-10.453-3.043-15.222-0.4
	C32.959,4.524,30,9.547,30,15v300C30,320.453,32.959,325.476,37.728,328.12z"/>
        </g>
    </symbol>

    <symbol viewBox="0 0 13.221 13.221" id="pause-icon" xmlns="http://www.w3.org/2000/svg">    
        <g>
            <path d="M3.756,0H1.523C1.029,0,0.629,0.4,0.629,0.894v11.434c0,0.493,0.4,0.893,0.894,0.893h2.233
                c0.494,0,0.894-0.399,0.894-0.893V0.894C4.651,0.4,4.251,0,3.756,0z"/>
                
            <path d="M11.698,0H9.464C8.971,0,8.57,0.4,8.57,0.894v11.434c0,0.493,0.4,0.893,0.894,0.893h2.234
                c0.494,0,0.894-0.399,0.894-0.893V0.894C12.591,0.4,12.192,0,11.698,0z"/>
        </g>
    </symbol>

    <symbol viewBox="0 0 10 16" id="facebook-icon" xmlns="http://www.w3.org/2000/svg">    
        <g>
            <path d="M3.02293 16L3 9H0V6H3V4C3 1.3008 4.67151 0 7.07938 0C8.23277 0 9.22406 0.08587 9.51294 0.12425V2.94507L7.84296 2.94583C6.53343 2.94583 6.27987 3.5681 6.27987 4.48124V6H10L9 9H6.27986V16H3.02293Z" />
        </g>
    </symbol>

    <symbol viewBox="0 0 15 15" id="instagram-icon" xmlns="http://www.w3.org/2000/svg">    
        <g>
            <path d="M7.50001 1.35134C9.50257 1.35134 9.73979 1.35899 10.5306 1.39508C11.2619 1.42842 11.659 1.5506 11.9233 1.65331C12.2734 1.78937 12.5232 1.95189 12.7856 2.21432C13.0481 2.47678 13.2106 2.72662 13.3467 3.0767C13.4494 3.34098 13.5716 3.7381 13.6049 4.46934C13.641 5.26018 13.6486 5.49739 13.6486 7.49995C13.6486 9.50254 13.641 9.73975 13.6049 10.5306C13.5716 11.2618 13.4494 11.659 13.3467 11.9232C13.2106 12.2733 13.0481 12.5231 12.7857 12.7856C12.5232 13.048 12.2734 13.2106 11.9233 13.3466C11.659 13.4493 11.2619 13.5715 10.5306 13.6049C9.73991 13.6409 9.50272 13.6486 7.50001 13.6486C5.49726 13.6486 5.26011 13.6409 4.46935 13.6049C3.73811 13.5715 3.34099 13.4493 3.07671 13.3466C2.72663 13.2106 2.47679 13.048 2.21436 12.7856C1.95192 12.5231 1.78937 12.2733 1.65332 11.9232C1.55061 11.659 1.42843 11.2618 1.39508 10.5306C1.359 9.73975 1.35135 9.50254 1.35135 7.49995C1.35135 5.49739 1.359 5.26018 1.39508 4.46934C1.42843 3.7381 1.55061 3.34098 1.65332 3.0767C1.78937 2.72662 1.95189 2.47678 2.21436 2.21435C2.47679 1.95189 2.72663 1.78937 3.07671 1.65331C3.34099 1.5506 3.73811 1.42842 4.46935 1.39508C5.26019 1.35899 5.49741 1.35134 7.50001 1.35134ZM7.50001 0C5.46312 0 5.20771 0.00863364 4.40775 0.0451331C3.60947 0.0815432 3.06427 0.208339 2.58721 0.393724C2.09402 0.58539 1.67576 0.841839 1.25879 1.25878C0.841842 1.67576 0.585392 2.09401 0.393755 2.5872C0.208339 3.06426 0.0815435 3.60946 0.0451332 4.40774C0.00863367 5.20769 0 5.4631 0 7.49995C0 9.53683 0.00863367 9.79224 0.0451332 10.5922C0.0815435 11.3905 0.208339 11.9357 0.393755 12.4127C0.585392 12.9059 0.841842 13.3242 1.25879 13.7411C1.67576 14.1581 2.09402 14.4145 2.58721 14.6062C3.06427 14.7916 3.60947 14.9184 4.40775 14.9548C5.20771 14.9913 5.46312 14.9999 7.50001 14.9999C9.53687 14.9999 9.79227 14.9913 10.5922 14.9548C11.3905 14.9184 11.9357 14.7916 12.4128 14.6062C12.906 14.4145 13.3242 14.1581 13.7412 13.7411C14.1581 13.3242 14.4146 12.9059 14.6063 12.4127C14.7916 11.9357 14.9184 11.3905 14.9548 10.5922C14.9913 9.79224 15 9.53683 15 7.49995C15 5.4631 14.9913 5.20769 14.9548 4.40774C14.9184 3.60946 14.7916 3.06426 14.6063 2.5872C14.4146 2.09401 14.1581 1.67576 13.7412 1.25878C13.3242 0.841839 12.906 0.58539 12.4128 0.393724C11.9357 0.208339 11.3905 0.0815432 10.5922 0.0451331C9.79227 0.00863364 9.53687 0 7.50001 0Z"/>
            <path d="M7.5037 3.65234C5.37664 3.65234 3.65234 5.37663 3.65234 7.50366C3.65234 9.63072 5.37664 11.355 7.5037 11.355C9.63074 11.355 11.355 9.63072 11.355 7.50366C11.355 5.37663 9.63074 3.65234 7.5037 3.65234ZM7.5037 10.0037C6.12297 10.0037 5.00369 8.88439 5.00369 7.50366C5.00369 6.12296 6.12297 5.00369 7.5037 5.00369C8.88441 5.00369 10.0037 6.12296 10.0037 7.50366C10.0037 8.88439 8.88441 10.0037 7.5037 10.0037Z" />
            <path d="M12.4069 3.49767C12.4069 3.9947 12.004 4.39765 11.5069 4.39765C11.0099 4.39765 10.6069 3.9947 10.6069 3.49767C10.6069 3.00061 11.0099 2.59766 11.5069 2.59766C12.004 2.59766 12.4069 3.00061 12.4069 3.49767Z" />
        </g>
    </symbol>

    <symbol viewBox="0 0 16 16" id="linkedin-icon" xmlns="http://www.w3.org/2000/svg">    
        <g>
            <path d="M3.32 2.33317C3.32 3.25384 2.58 3.99984 1.66667 3.99984C0.753333 3.99984 0.0133333 3.25384 0.0133333 2.33317C0.0133333 1.41317 0.753333 0.666504 1.66667 0.666504C2.58 0.666504 3.32 1.41317 3.32 2.33317ZM3.33333 5.33317H0V15.9998H3.33333V5.33317ZM8.65467 5.33317H5.34267V15.9998H8.65533V10.4005C8.65533 7.28717 12.6747 7.0325 12.6747 10.4005V15.9998H16V9.24584C16 3.9925 10.052 4.18384 8.65467 6.76984V5.33317Z"/>
        </g>
    </symbol>

    <symbol viewBox="0 0 16 14" id="twitter-icon" xmlns="http://www.w3.org/2000/svg">    
        <g>
           <path d="M16 2C15.4 2.3 14.8 2.4 14.1 2.5C14.8 2.1 15.3 1.5 15.5 0.7C14.9 1.1 14.2 1.3 13.4 1.5C12.8 0.9 11.9 0.5 11 0.5C9.3 0.5 7.8 2 7.8 3.8C7.8 4.1 7.8 4.3 7.9 4.5C5.2 4.4 2.7 3.1 1.1 1.1C0.8 1.6 0.7 2.1 0.7 2.8C0.7 3.9 1.3 4.9 2.2 5.5C1.7 5.5 1.2 5.3 0.7 5.1C0.7 6.7 1.8 8 3.3 8.3C3 8.4 2.7 8.4 2.4 8.4C2.2 8.4 2 8.4 1.8 8.3C2.2 9.6 3.4 10.6 4.9 10.6C3.8 11.5 2.4 12 0.8 12C0.5 12 0.3 12 0 12C1.5 12.9 3.2 13.5 5 13.5C11 13.5 14.3 8.5 14.3 4.2C14.3 4.1 14.3 3.9 14.3 3.8C15 3.3 15.6 2.7 16 2Z"/>
        </g>
    </symbol>
</svg>